<?xml version="1.0" encoding="UTF-8" standalone="no"?>
<!-- Generator: Adobe Adobe Illustrator 24.2.0, SVG Export Plug-In . SVG Version: 6.00 Build 0)  -->

<svg
   version="1.1"
   x="0px"
   y="0px"
   viewBox="0 0 1080 1080"
   style="enable-background:new 0 0 1080 1080;"
   xml:space="preserve"
   id="svg23"
   sodipodi:docname="mayday-logo.svg"
   inkscape:version="1.4.3 (0d15f75, 2025-12-25)"
   inkscape:export-filename="C:\Users\hailn\Downloads\mayday-logo.png"
   inkscape:export-xdpi="96"
   inkscape:export-ydpi="96"
   xmlns:inkscape="http://www.inkscape.org/namespaces/inkscape"
   xmlns:sodipodi="http://sodipodi.sourceforge.net/DTD/sodipodi-0.dtd"
   xmlns="http://www.w3.org/2000/svg"
   xmlns:svg="http://www.w3.org/2000/svg"><defs
   id="defs23">
				
				
			
	
	
	
	

		
		
		
	
			
			
			
		
				
			
					
				</defs><sodipodi:namedview
   id="namedview23"
   pagecolor="#ffffff"
   bordercolor="#000000"
   borderopacity="0.25"
   inkscape:showpageshadow="2"
   inkscape:pageopacity="0.0"
   inkscape:pagecheckerboard="0"
   inkscape:deskcolor="#d1d1d1"
   inkscape:zoom="0.55717395"
   inkscape:cx="498.04913"
   inkscape:cy="564.45568"
   inkscape:window-width="1920"
   inkscape:window-height="1111"
   inkscape:window-x="-9"
   inkscape:window-y="-9"
   inkscape:window-maximized="1"
   inkscape:current-layer="g23" />
<style
   type="text/css"
   id="style1">
	.st0{display:none;}
	.st1{display:inline;}
	.st2{fill:#FFFFFF;stroke:#3FA7DE;stroke-width:5;stroke-miterlimit:10;}
	.st3{display:inline;fill:#3FA7DE;}
	.st4{display:inline;fill:none;stroke:#3FA7DE;stroke-width:5;stroke-linecap:round;stroke-miterlimit:10;}
	.st5{display:inline;fill:none;}
	.st6{display:inline;fill:none;stroke:#FFFFFF;stroke-miterlimit:10;}
	.st7{display:inline;fill:#FFFFFF;stroke:#000000;stroke-width:5;stroke-miterlimit:10;}
	.st8{display:inline;fill:none;stroke:#000000;stroke-width:5;stroke-linecap:round;stroke-miterlimit:10;}
	.st9{fill:#FFFFFF;}
	.st10{fill:#3FA7DE;}
	.st11{fill:#3FA7DE;stroke:#3FA7DE;stroke-width:5;stroke-miterlimit:10;}
	.st12{display:inline;fill:#FFFFFF;}
	.st13{display:inline;fill:#FF00F2;}
</style>
<g
   id="g23"><path
     class="st9"
     d="m 565.57,819.93 c -29.35,0 -61.34,-3.95 -97.78,-12.07 -20.62,-4.6 -43.18,-10 -67.06,-15.73 -44.75,-10.73 -91.03,-21.82 -130.29,-28.94 -26.43,-4.79 -51.71,-7.23 -75.14,-7.23 -40.63,0 -77.16,7.3 -108.56,21.69 l -1.27,0.58 c -6.85,3.15 -13.92,6.39 -20.38,7.35 13.57,-16.24 27.73,-31.52 41.44,-46.31 34.78,-37.52 67.63,-72.95 93.03,-123.83 l 0.07,-0.15 c 2.56,-5.43 24.77,-53.79 17.24,-80.31 -4.92,-17.32 -12.97,-28.08 -20.76,-38.49 -11.73,-15.68 -23.86,-31.88 -29.78,-74.33 -5.28,-37.87 -8.95,-80.72 14.58,-109.87 18.73,-23.2 50.42,-31.78 81.88,-37.59 52.48,-9.7 106.54,-14.63 160.65,-14.63 145.31,0 289.23,35.06 416.19,101.39 88.67,46.33 147.37,98.74 179.45,160.24 5.59,11.35 0.38,26.98 -4.21,40.78 -4.27,12.82 -9.11,27.34 -19.29,36.33 -4.66,4.11 -9.88,5.94 -16.94,5.94 -6.02,0 -12.7,-1.33 -19.77,-2.73 -4.02,-0.8 -8.17,-1.62 -12.43,-2.25 -0.69,-0.1 -1.4,-0.15 -2.1,-0.15 -7.12,0 -13.05,5.11 -14.12,12.15 -0.96,6.36 -2.05,13 -3.21,20.03 -4.07,24.73 -8.67,52.75 -8.67,77.02 v 0.3 c 0.01,1.12 -0.52,1.9 -0.97,2.35 -0.63,0.63 -1.47,1 -2.31,1 -0.52,0 -1.05,-0.14 -1.55,-0.43 -38,-21.3 -81.39,-32.55 -125.48,-32.55 -12.77,0 -25.58,0.97 -38.06,2.88 -4.88,0.75 -8.97,3.92 -10.93,8.49 -4.18,9.73 -15.71,35.09 -32.57,60.38 -20.68,31.04 -42.18,50.84 -62.17,57.24 -23.73,7.59 -50.23,11.45 -78.73,11.45 z"
     id="path15"
     style="stroke:#2394d1;stroke-opacity:1" /><path
     class="st10"
     d="m 423.46,267.57 c 144.1,0 286.82,34.77 412.72,100.54 87.22,45.57 144.87,96.92 176.23,156.97 4.17,8.6 -0.51,22.64 -4.63,35.03 -3.97,11.92 -8.47,25.43 -17.14,33.08 -3.28,2.89 -6.75,4.07 -11.98,4.07 -5.28,0 -11.61,-1.26 -18.31,-2.59 -4.1,-0.82 -8.35,-1.66 -12.8,-2.32 -1.06,-0.16 -2.13,-0.23 -3.19,-0.23 -10.86,0 -19.91,7.79 -21.53,18.53 -0.95,6.31 -2.04,12.92 -3.19,19.93 -3.75,22.79 -7.95,48.35 -8.67,71.54 -37.6,-19.73 -79.94,-30.13 -122.92,-30.13 -13.15,0 -26.34,1 -39.2,2.97 -7.46,1.14 -13.69,5.98 -16.68,12.94 -4.1,9.54 -15.4,34.4 -31.92,59.18 -19.73,29.62 -39.86,48.38 -58.21,54.25 -23.02,7.37 -48.75,11.11 -76.47,11.11 -28.8,0 -60.25,-3.89 -96.15,-11.89 -20.56,-4.58 -43.09,-9.98 -66.94,-15.7 -44.86,-10.75 -91.24,-21.87 -130.7,-29.03 -26.87,-4.87 -52.6,-7.35 -76.48,-7.35 -38.79,0 -74,6.51 -104.79,19.35 7.19,-7.98 14.42,-15.78 21.53,-23.44 33.61,-36.25 68.36,-73.74 94.24,-125.58 l 0.08,-0.15 0.07,-0.15 c 0.26,-0.55 6.42,-13.68 11.73,-30.09 7.77,-24.04 9.72,-42.18 5.95,-55.46 -5.3,-18.66 -13.77,-29.98 -21.97,-40.93 -11.16,-14.92 -22.7,-30.34 -28.36,-70.88 -5.07,-36.32 -8.66,-77.31 12.99,-104.12 17.19,-21.3 47.37,-29.38 77.41,-34.93 52.03,-9.64 105.62,-14.52 159.28,-14.52 m 0,-15 c -54.31,0 -108.59,4.87 -162.02,14.75 -31.93,5.9 -65.96,15 -86.36,40.26 -25.17,31.17 -21.71,75.94 -16.18,115.62 10.21,73.2 39.22,73.25 50.75,113.84 6.98,24.57 -16.81,75.06 -16.81,75.06 -35.49,71.09 -87.51,113.29 -134.68,170.08 -3.65,4.4 -0.53,11.12 5.02,11.12 0.17,0 0.34,-0.01 0.52,-0.02 8.76,-0.65 17.89,-5.02 26.15,-8.81 32.97,-15.11 69.02,-21.01 105.44,-21.01 24.71,0 49.59,2.71 73.8,7.1 59.9,10.86 137.64,31.36 197.05,44.61 32.52,7.25 66.14,12.25 99.42,12.25 27.52,0 54.8,-3.42 81.05,-11.83 51.77,-16.58 91.44,-103.41 99.34,-121.8 0.92,-2.14 2.86,-3.68 5.17,-4.03 12.22,-1.87 24.57,-2.79 36.93,-2.79 42.4,0 84.81,10.86 121.81,31.59 1.7,0.95 3.48,1.39 5.22,1.39 5.67,0 10.82,-4.63 10.78,-10.98 0,-0.06 0,-0.11 0,-0.17 0,-30.32 7.4,-66.78 11.8,-95.93 0.51,-3.36 3.4,-5.77 6.7,-5.77 0.33,0 0.67,0.02 1.01,0.07 11.68,1.73 22.91,5.07 33.3,5.07 7.83,0 15.19,-1.9 21.9,-7.82 11.4,-10.05 16.65,-25.17 21.45,-39.59 5.3,-15.91 10.67,-32.67 3.78,-46.54 C 987.42,444.68 916.71,393.24 843.13,354.8 714.26,287.49 568.81,252.57 423.46,252.57 Z"
     id="path16"
     style="stroke:#2394d1;stroke-opacity:1;stroke-width:22.2;stroke-dasharray:none;fill:#2394d1;fill-opacity:1" /><path
     class="st11"
     d="m 209.67,537.03 c -3.64,-10.17 -6.17,-21.17 1.19,-29.07 7.36,-7.9 18.41,-11.09 29.02,-13.1 32.41,-6.16 65.75,-4.48 98.68,-2.44 204.06,12.65 409.87,38.93 600.05,113.99 0,0 -1.77,9.01 -2.12,11.84 -3.68,29.8 -8.79,50.95 -10.68,82.25 -0.3,4.9 1.43,21.36 -3.31,22.65 -3.1,0.85 -6.25,-0.89 -9.03,-2.51 -49.59,-28.93 -109.45,-39.84 -166.06,-30.26 0,0 -42.8,106.66 -100.77,125.23 -57.98,18.57 -121.05,12.82 -180.46,-0.43 C 406.74,801.93 329,781.43 269.1,770.57 209.2,759.71 145.2,759.11 89.86,784.47 c -12.39,5.68 -26.7,12.66 -38.83,6.46 47.28,-59.62 109.05,-110.19 141.83,-178.85 8.28,-17.35 23.29,-56.95 16.81,-75.05 z"
     id="path17"
     style="fill:#2394d1;fill-opacity:1;stroke:#2394d1;stroke-opacity:1" /><path
     class="st10"
     d="m 424.55819,293.43905 c -50.44753,0 -91.35186,40.90432 -91.35186,91.35185 0,50.44753 40.90433,91.35186 91.35186,91.35186 50.44753,0 91.35185,-40.90433 91.35185,-91.35186 0,-50.44753 -40.90432,-91.35185 -91.35185,-91.35185 z m -59.44214,43.36156 c -0.66288,0.80002 -1.31433,1.61148 -1.9315,2.42294 0.61717,-0.83432 1.25719,-1.64577 1.90864,-2.4458 z m 0.96003,97.12349 -0.0229,0.0229 c -4.24016,-5.04018 -7.84029,-10.64039 -10.67467,-16.66346 2.82295,5.78307 6.40023,11.36041 10.69752,16.6406 z m 31.95544,-49.1332 c 0,-14.65195 11.87471,-26.52666 26.52667,-26.52666 14.65195,0 26.52666,11.87471 26.52666,26.52666 0,14.65196 -11.87471,26.52667 -26.52666,26.52667 -14.65196,0.0114 -26.52667,-11.87471 -26.52667,-26.52667 z m 61.03076,-23.74942 c 0.0114,0.0114 0.0229,0.0343 0.0229,0.0457 -0.0114,-0.0114 -0.0229,-0.0229 -0.0229,-0.0457 z m -0.85717,48.69889 c 0,0.0114 -0.0114,0.0114 -0.0114,0.0229 v 0 c 0,-0.0114 0,-0.0114 0.0114,-0.0229 z m 34.08123,10.46895 c -1.95983,4.80154 -2.54175,11.17529 -6.11903,15.41544 3.61156,-4.42302 6.70882,-9.36903 6.11903,-15.41544 z m -18.5721,-93.92338 -24.59517,24.59517 c -6.90311,-5.00589 -15.38341,-7.966 -24.56088,-7.966 -9.36034,0 -18.00065,3.0744 -24.97233,8.25173 l -24.56088,-24.56089 c 13.33762,-11.37183 30.62967,-18.24065 49.53321,-18.24065 18.72067,0 35.86414,6.7431 49.15605,17.92064 z M 376.15645,443.94732 400.80876,419.295 c 6.75453,4.6516 14.92625,7.38312 23.74943,7.38312 8.64031,0 16.66345,-2.61723 23.33798,-7.09739 l 24.67517,24.67517 c -13.12047,10.60609 -29.81821,16.97204 -48.01315,16.97204 -18.36638,0 -35.22413,-6.48024 -48.40174,-17.28062 z"
     id="path18"
     style="stroke-width:1.1429;fill:#2394d1;stroke:#2394d1;stroke-opacity:1;fill-opacity:1"
     sodipodi:nodetypes="ssssscccccccscssscsccccssccccccsccscccsccsc" /></g>


</svg>
